<?xml version="1.0" standalone="no"?>
<!DOCTYPE svg PUBLIC "-//W3C//DTD SVG 20010904//EN"
 "http://www.w3.org/TR/2001/REC-SVG-20010904/DTD/svg10.dtd">
<svg version="1.0" xmlns="http://www.w3.org/2000/svg"
 width="250.000000pt" height="250.000000pt" viewBox="0 0 250.000000 250.000000"
 preserveAspectRatio="xMidYMid meet">

<g transform="translate(0.000000,250.000000) scale(0.100000,-0.100000)"
fill="#000000" stroke="none">
<path d="M1096 2459 c-531 -73 -953 -476 -1047 -999 -20 -109 -17 -336 5 -440
104 -498 468 -862 966 -966 104 -22 331 -25 440 -5 378 68 705 313 878 656 89
177 126 337 126 545 0 156 -15 254 -60 390 -135 401 -483 712 -897 801 -108
23 -313 32 -411 18z m342 -55 c153 -51 276 -160 346 -307 108 -229 62 -491
-119 -673 -110 -110 -260 -173 -415 -174 -154 -1 -304 -64 -415 -175 -117
-117 -175 -254 -175 -417 0 -106 15 -169 62 -267 70 -142 195 -249 358 -303
l55 -18 -50 5 c-162 19 -410 121 -545 224 -84 64 -214 199 -269 280 -91 133
-164 313 -192 471 -17 96 -17 303 0 400 60 345 276 653 580 829 248 144 570
196 779 125z m-108 -1617 c126 -84 80 -271 -69 -284 -80 -7 -150 49 -165 133
-9 47 26 120 73 151 46 31 116 31 161 0z"/>
<path d="M1180 1982 c-42 -23 -75 -69 -84 -118 -9 -47 26 -120 73 -151 127
-85 289 67 218 204 -38 72 -137 103 -207 65z"/>
</g>
</svg>
